<svg xmlns="http://www.w3.org/2000/svg" width="750" height="1050" viewBox="0 0 750 1050">
  <rect x="24" y="24" width="702" height="1002" rx="36" ry="36"
        fill="#ffffff" stroke="#1b1b1b" stroke-width="6"/>
  <rect x="36" y="36" width="678" height="978" rx="26" ry="26"
        fill="none" stroke="#111111" stroke-width="2" opacity="0.15"/>
  
    <g>
      <text x="70" y="86" text-anchor="middle" font-family="Georgia, 'Times New Roman', serif"
            font-size="76" font-weight="700" fill="#111111">K</text>
      <g transform="translate(70,138) scale(0.48)">
        
        <g fill="#111111">
          <circle cx="-22" cy="18" r="23"/>
          <circle cx="22" cy="18" r="23"/>
          <path d="M -45 8 C -45 -20, -18 -34, 0 -55 C 18 -34, 45 -20, 45 8 L 0 -38 Z"/>
          <path d="M -10 24 C -10 46, -18 50, -22 64 L 22 64 C 18 50, 10 46, 10 24 Z"/>
        </g>
        
      </g>
    </g>
    
  
    <g transform="rotate(180 680 964)">
      <text x="680" y="964" text-anchor="middle" font-family="Georgia, 'Times New Roman', serif"
            font-size="76" font-weight="700" fill="#111111">K</text>
      <g transform="translate(680,1016) scale(0.48)">
        
        <g fill="#111111">
          <circle cx="-22" cy="18" r="23"/>
          <circle cx="22" cy="18" r="23"/>
          <path d="M -45 8 C -45 -20, -18 -34, 0 -55 C 18 -34, 45 -20, 45 8 L 0 -38 Z"/>
          <path d="M -10 24 C -10 46, -18 50, -22 64 L 22 64 C 18 50, 10 46, 10 24 Z"/>
        </g>
        
      </g>
    </g>
    
  
    <g>
      <rect x="135.0" y="231.0" width="480.0" height="588.0"
            rx="28" ry="28" fill="none" stroke="#111111" stroke-width="8"/>
      <line x1="165.0" y1="525.0" x2="585.0" y2="525.0"
            stroke="#111111" stroke-width="6" opacity="0.35"/>
      <text x="375.0" y="462.0" text-anchor="middle" font-family="Georgia, 'Times New Roman', serif"
            font-size="210" font-weight="700" fill="#111111" opacity="0.92">K</text>
      <g transform="translate(375.0,661.5) scale(1.55)">
        
        <g fill="#111111">
          <circle cx="-22" cy="18" r="23"/>
          <circle cx="22" cy="18" r="23"/>
          <path d="M -45 8 C -45 -20, -18 -34, 0 -55 C 18 -34, 45 -20, 45 8 L 0 -38 Z"/>
          <path d="M -10 24 C -10 46, -18 50, -22 64 L 22 64 C 18 50, 10 46, 10 24 Z"/>
        </g>
        
      </g>
      <g transform="translate(210.0,325.5) scale(0.62)">
        
        <g fill="#111111">
          <circle cx="-22" cy="18" r="23"/>
          <circle cx="22" cy="18" r="23"/>
          <path d="M -45 8 C -45 -20, -18 -34, 0 -55 C 18 -34, 45 -20, 45 8 L 0 -38 Z"/>
          <path d="M -10 24 C -10 46, -18 50, -22 64 L 22 64 C 18 50, 10 46, 10 24 Z"/>
        </g>
        
      </g>
      <g transform="translate(540.0,724.5) scale(0.62) rotate(180)">
        
        <g fill="#111111">
          <circle cx="-22" cy="18" r="23"/>
          <circle cx="22" cy="18" r="23"/>
          <path d="M -45 8 C -45 -20, -18 -34, 0 -55 C 18 -34, 45 -20, 45 8 L 0 -38 Z"/>
          <path d="M -10 24 C -10 46, -18 50, -22 64 L 22 64 C 18 50, 10 46, 10 24 Z"/>
        </g>
        
      </g>
    </g>
    
</svg>
